<svg xmlns="http://www.w3.org/2000/svg" width="1024" height="500" viewBox="0 0 1024 500"><defs><radialGradient id="g3" cx="800" cy="250" r="320" gradientUnits="userSpaceOnUse"><stop offset="0" stop-color="#eecd2b" stop-opacity="0.14"/><stop offset="0.45" stop-color="#eecd2b" stop-opacity="0.06"/><stop offset="1" stop-color="#eecd2b" stop-opacity="0"/></radialGradient><radialGradient id="g4" cx="1010" cy="30" r="320" gradientUnits="userSpaceOnUse"><stop offset="0" stop-color="#3b82f6" stop-opacity="0.09"/><stop offset="0.45" stop-color="#3b82f6" stop-opacity="0.04"/><stop offset="1" stop-color="#3b82f6" stop-opacity="0"/></radialGradient><radialGradient id="g5" cx="560" cy="500" r="280" gradientUnits="userSpaceOnUse"><stop offset="0" stop-color="#a855f7" stop-opacity="0.05"/><stop offset="0.45" stop-color="#a855f7" stop-opacity="0.02"/><stop offset="1" stop-color="#a855f7" stop-opacity="0"/></radialGradient><radialGradient id="g6" cx="800" cy="250" r="560" gradientUnits="userSpaceOnUse"><stop offset="0" stop-color="#0a0a0a" stop-opacity="0"/><stop offset="0.1" stop-color="#0a0a0a" stop-opacity="0"/><stop offset="1" stop-color="#0a0a0a" stop-opacity="1"/></radialGradient><radialGradient id="g7" cx="800" cy="250" r="165.6" gradientUnits="userSpaceOnUse"><stop offset="0" stop-color="#eecd2b" stop-opacity="0.28"/><stop offset="0.45" stop-color="#eecd2b" stop-opacity="0.12"/><stop offset="1" stop-color="#eecd2b" stop-opacity="0"/></radialGradient><linearGradient id="goldFill" x1="0" y1="0" x2="1" y2="1"><stop offset="0" stop-color="#f7de5a"/><stop offset="0.55" stop-color="#eecd2b"/><stop offset="1" stop-color="#d4b41c"/></linearGradient><linearGradient id="goldSheen" x1="0" y1="0" x2="0" y2="1"><stop offset="0" stop-color="#fff" stop-opacity="0.28"/><stop offset="0.5" stop-color="#fff" stop-opacity="0"/></linearGradient></defs><rect width="1024" height="500" fill="#0a0a0a"/><rect x="690" y="-290" width="640" height="640" fill="url(#g4)"/><rect x="280" y="220" width="560" height="560" fill="url(#g5)"/><rect x="480" y="-70" width="640" height="640" fill="url(#g3)"/><g transform="translate(-36.74 -94.54)" stroke="#f8f8f6" stroke-opacity="0.07" stroke-width="1"><line x1="0" y1="0" x2="0" y2="598.44"/><line x1="98.44" y1="0" x2="98.44" y2="598.44"/><line x1="196.88" y1="0" x2="196.88" y2="598.44"/><line x1="295.32" y1="0" x2="295.32" y2="598.44"/><line x1="393.76" y1="0" x2="393.76" y2="598.44"/><line x1="492.2" y1="0" x2="492.2" y2="598.44"/><line x1="590.64" y1="0" x2="590.64" y2="598.44"/><line x1="689.0799999999999" y1="0" x2="689.0799999999999" y2="598.44"/><line x1="787.52" y1="0" x2="787.52" y2="598.44"/><line x1="885.96" y1="0" x2="885.96" y2="598.44"/><line x1="984.4000000000001" y1="0" x2="984.4000000000001" y2="598.44"/><line x1="1082.8400000000001" y1="0" x2="1082.8400000000001" y2="598.44"/><line x1="0" y1="0" x2="1122.44" y2="0"/><line x1="0" y1="98.44" x2="1122.44" y2="98.44"/><line x1="0" y1="196.88" x2="1122.44" y2="196.88"/><line x1="0" y1="295.32" x2="1122.44" y2="295.32"/><line x1="0" y1="393.76" x2="1122.44" y2="393.76"/><line x1="0" y1="492.2" x2="1122.44" y2="492.2"/><line x1="0" y1="590.64" x2="1122.44" y2="590.64"/></g><rect width="1024" height="500" fill="url(#g6)"/><rect x="634.4" y="84.4" width="331.2" height="331.2" fill="url(#g7)"/><rect x="757.68" y="109.24" width="84.64" height="84.64" rx="13.12" fill="#101010" stroke="#eecd2b" stroke-opacity="0.9" stroke-width="5.52"/><rect x="659.24" y="207.68" width="84.64" height="84.64" rx="13.12" fill="#101010" stroke="#eecd2b" stroke-opacity="0.9" stroke-width="5.52"/><rect x="856.12" y="207.68" width="84.64" height="84.64" rx="13.12" fill="#101010" stroke="#eecd2b" stroke-opacity="0.9" stroke-width="5.52"/><rect x="757.68" y="306.12" width="84.64" height="84.64" rx="13.12" fill="#101010" stroke="#eecd2b" stroke-opacity="0.9" stroke-width="5.52"/><rect x="754.92" y="204.92" width="90.16" height="90.16" rx="13.97" fill="url(#goldFill)"/><rect x="754.92" y="204.92" width="90.16" height="90.16" rx="13.97" fill="url(#goldSheen)"/><rect x="76" y="138" width="64" height="64" rx="9" fill="rgba(238,205,43,0.1)" stroke="#eecd2b" stroke-width="1.5"/><text x="108" y="181" font-family="Manrope" font-weight="700" font-size="31" text-anchor="middle" fill="#eecd2b">C</text><rect x="148" y="138" width="64" height="64" rx="9" fill="#1a1a1a" stroke="rgba(255,255,255,0.14)" stroke-width="1.5"/><text x="180" y="181" font-family="Manrope" font-weight="700" font-size="31" text-anchor="middle" fill="#f8f8f6">R</text><rect x="220" y="138" width="64" height="64" rx="9" fill="#1a1a1a" stroke="rgba(255,255,255,0.14)" stroke-width="1.5"/><text x="252" y="181" font-family="Manrope" font-weight="700" font-size="31" text-anchor="middle" fill="#f8f8f6">U</text><rect x="292" y="138" width="64" height="64" rx="9" fill="#1a1a1a" stroke="rgba(255,255,255,0.14)" stroke-width="1.5"/><text x="324" y="181" font-family="Manrope" font-weight="700" font-size="31" text-anchor="middle" fill="#f8f8f6">X</text><rect x="364" y="138" width="64" height="64" rx="9" fill="#1a1a1a" stroke="rgba(255,255,255,0.14)" stroke-width="1.5"/><text x="396" y="181" font-family="Manrope" font-weight="700" font-size="31" text-anchor="middle" fill="#f8f8f6">E</text><text x="76" y="286" font-family="Manrope" font-weight="700" font-size="46" fill="#f8f8f6">The Elite Crossword</text><text x="78" y="330" font-family="Manrope" font-weight="400" font-size="21" fill="#a3a3a3">A new set every day. Made properly.</text></svg>